<svg xmlns="http://www.w3.org/2000/svg" viewBox="0 0 32 32">
  <defs>
    <linearGradient id="s" x1="0%" y1="0%" x2="100%" y2="100%">
      <stop offset="0%" stop-color="#e8420a"/>
      <stop offset="35%" stop-color="#f0541a"/>
      <stop offset="65%" stop-color="#f0a018"/>
      <stop offset="100%" stop-color="#f7c948"/>
    </linearGradient>
  </defs>
  <rect width="32" height="32" rx="6" fill="#0b0a08"/>
  <path stroke="url(#s)" stroke-width="1.2" fill="none" stroke-linecap="round" d="M16,16 L16.2,16 L16.4,16.1 L16.5,16.2 L16.6,16.4 L16.6,16.6 L16.5,16.8 L16.4,17 L16.1,17.1 L15.8,17.2 L15.5,17.2 L15.2,17.1 L15,16.9 L14.8,16.6 L14.7,16.3 L14.7,15.9 L14.8,15.5 L15,15.2 L15.3,14.9 L15.6,14.7 L16,14.6 L16.4,14.5 L16.8,14.6 L17.2,14.7 L17.5,15 L17.8,15.3 L17.9,15.7 L18,16.1 L18,16.6 L17.9,17 L17.7,17.4 L17.4,17.8 L17.1,18.1 L16.7,18.3 L16.2,18.5 L15.7,18.5 L15.2,18.5 L14.7,18.3 L14.3,18 L13.9,17.7 L13.6,17.3 L13.4,16.8 L13.3,16.3 L13.3,15.7 L13.4,15.2 L13.6,14.7 L13.9,14.2 L14.3,13.8 L14.7,13.5 L15.2,13.3 L15.8,13.1 L16.3,13.1 L16.9,13.1 L17.5,13.3 L18,13.5 L18.5,13.9 L18.9,14.3 L19.2,14.8 L19.4,15.3 L19.5,15.9 L19.5,16.5 L19.4,17.1 L19.2,17.7 L18.9,18.2 L18.5,18.7 L18,19.1 L17.5,19.4 L16.9,19.6 L16.2,19.8 L15.5,19.8 L14.9,19.7 L14.2,19.5 L13.6,19.2 L13.1,18.8 L12.6,18.3 L12.3,17.7 L12,17.1 L11.9,16.4 L11.9,15.7 L12,15 L12.2,14.3 L12.6,13.7 L13,13.1 L13.5,12.6 L14.1,12.2 L14.8,11.9 L15.5,11.7 L16.2,11.7 L17,11.7 L17.7,11.9 L18.4,12.2 L19,12.6 L19.6,13.2 L20,13.8 L20.4,14.5 L20.6,15.2 L20.7,16 L20.7,16.8 L20.5,17.5 L20.2,18.3 L19.8,18.9 L19.3,19.5 L18.7,20 L18,20.5 L17.2,20.8 L16.4,21 L15.6,21.1 L14.7,21 L13.9,20.8 L13.1,20.5 L12.4,20 L11.7,19.4 L11.2,18.7 L10.8,18 L10.5,17.1 L10.4,16.3 L10.4,15.4 L10.5,14.5 L10.8,13.6 L11.2,12.8 L11.8,12.1 L12.4,11.4 L13.2,10.9 L14,10.5 L14.9,10.2 L15.8,10 L16.7,10 L17.7,10.1 L18.6,10.3 L19.5,10.7 L20.3,11.2 L21,11.9 L21.7,12.6 L22.2,13.4 L22.5,14.3 L22.7,15.3 L22.8,16.2 L22.7,17.2 L22.5,18.2 L22.1,19.1 L21.6,19.9"/>
</svg>
