<svg xmlns="http://www.w3.org/2000/svg" width="64" height="64" viewBox="0 0 64 64">
  <circle cx="32" cy="32" r="32" fill="#0b0a08"/>
  <g transform="translate(14, 16) scale(0.55)">
    <!-- Top row: 2 chevrons -->
    <polygon points="20,0 40,0 50,10 40,20 20,20 30,10" fill="url(#fg)" opacity="0.85"/>
    <polygon points="42,0 62,0 72,10 62,20 42,20 52,10" fill="url(#fg)" opacity="0.95"/>
    <!-- Middle row: 3 chevrons -->
    <polygon points="0,22 20,22 30,32 20,42 0,42 10,32" fill="url(#fg)" opacity="0.75"/>
    <polygon points="22,22 42,22 52,32 42,42 22,42 32,32" fill="url(#fg)" opacity="0.85"/>
    <polygon points="44,22 64,22 74,32 64,42 44,42 54,32" fill="url(#fg)"/>
    <!-- Bottom row: 2 chevrons -->
    <polygon points="20,44 40,44 50,54 40,64 20,64 30,54" fill="url(#fg)" opacity="0.85"/>
    <polygon points="42,44 62,44 72,54 62,64 42,64 52,54" fill="url(#fg)" opacity="0.95"/>
  </g>
  <defs>
    <linearGradient id="fg" x1="0" y1="0" x2="64" y2="64" gradientUnits="userSpaceOnUse">
      <stop stop-color="#e8420a"/>
      <stop offset="1" stop-color="#f0a018"/>
    </linearGradient>
  </defs>
</svg>